<?xml version="1.0" encoding="iso-8859-1"?>
<!-- Generator: Adobe Illustrator 19.0.0, SVG Export Plug-In . SVG Version: 6.00 Build 0)  -->
<svg version="1.1" id="Layer_1" xmlns="http://www.w3.org/2000/svg" xmlns:xlink="http://www.w3.org/1999/xlink" x="0px" y="0px"
	 viewBox="0 0 392.436 392.436" style="enable-background:new 0 0 392.436 392.436;" xml:space="preserve">
<path style="fill:#FFC10D;" d="M196.186,21.786c-65.228,0-118.303,53.075-118.303,118.303c0,51.459,78.675,169.309,118.303,223.418
	c39.628-54.109,118.303-172.024,118.303-223.418C314.489,74.861,261.414,21.786,196.186,21.786z"/>
<path style="fill:#FFFFFF;" d="M273.309,140.089c0-42.473-34.586-77.123-77.123-77.123s-77.123,34.651-77.123,77.123
	s34.651,77.123,77.123,77.123S273.309,182.691,273.309,140.089z"/>
<g>
	<path style="fill:#194F82;" d="M196.186,41.18c-54.562,0-98.909,44.347-98.909,98.909s44.347,98.909,98.909,98.909
		s98.909-44.347,98.909-98.909C295.095,85.592,250.748,41.18,196.186,41.18z M119.063,140.089c0-42.473,34.65-77.123,77.123-77.123
		s77.123,34.651,77.123,77.123s-34.65,77.123-77.123,77.123S119.063,182.691,119.063,140.089z"/>
	<path style="fill:#194F82;" d="M196.186,0C118.933,0,56.097,62.836,56.097,140.089c0,74.149,126.061,241.196,131.426,248.178
		c4.073,5.624,13.188,5.495,17.39,0c5.301-7.111,131.426-174.028,131.426-248.178C336.275,62.836,273.438,0,196.186,0z
		 M77.883,140.089c0-65.228,53.075-118.303,118.303-118.303s118.303,53.075,118.303,118.303
		c0,51.394-78.675,169.309-118.303,223.418C156.558,309.398,77.883,191.547,77.883,140.089z"/>
	<path style="fill:#194F82;" d="M237.172,129.164h-30.061V99.103c0-6.012-4.848-10.925-10.925-10.925
		c-6.077,0-10.925,4.848-10.925,10.925v30.061H155.2c-6.012,0-10.925,4.848-10.925,10.925c0,6.012,4.848,10.925,10.925,10.925
		h30.061v30.061c0,6.012,4.848,10.925,10.925,10.925c6.012,0,10.925-4.848,10.925-10.925v-30.061h30.061
		c6.012,0,10.925-4.848,10.925-10.925C248.097,134.012,243.184,129.164,237.172,129.164z"/>
</g>
<g>
</g>
<g>
</g>
<g>
</g>
<g>
</g>
<g>
</g>
<g>
</g>
<g>
</g>
<g>
</g>
<g>
</g>
<g>
</g>
<g>
</g>
<g>
</g>
<g>
</g>
<g>
</g>
<g>
</g>
</svg>
